<?xml version="1.0" encoding="UTF-8" standalone="no"?>
<!-- Created with Inkscape (http://www.inkscape.org/) -->

<svg
   version="1.1"
   id="svg2"
   width="197.01337"
   height="611.90082"
   viewBox="0 0 197.01337 611.90082"
   xmlns="http://www.w3.org/2000/svg"
   xmlns:svg="http://www.w3.org/2000/svg">
  <defs
     id="defs6" />
  <g
     id="g8"
     transform="translate(-43.850088,-1.8605977)">
    <g
       id="g3651"
       transform="matrix(-0.97861665,0.20569262,0.20569262,0.97861665,256.82489,-25.976719)">
      <path
         style="display:inline;fill:none;stroke:#000000;stroke-width:1px;stroke-linecap:butt;stroke-linejoin:miter;stroke-opacity:1"
         d="m 134.41222,2.8540758 16.5669,2.4250848 14.63306,7.8950584 20.52526,18.269333 19.70923,29.960353 15.33135,30.994262 14.54645,34.278683 19.34113,55.38585 8.16436,37.32628 3.16804,43.38899 -6.48087,55.21128 -11.86966,39.03953 -11.60847,33.19741 -5.9152,23.57691 -2.45621,19.74712 -2.88656,30.41912 -0.77001,31.30957 0.49936,18.98252 2.40614,33.15816 -0.90264,38.56047 -1.65507,5.90168 -5.37389,8.69755 -10.89394,8.49456 -13.99701,3.25059 -23.10327,-0.68611 -18.49127,-4.59711 -9.29571,-10.82627 -5.35088,-19.64833 0.0853,-34.34905 2.15984,-28.32559 2.49816,-26.01418 -0.0352,-20.1125 -1.91489,-22.17221 -5.07211,-41.3753 -8.88702,-38.59701 -7.99114,-31.97945 -18.24632,-33.09727 -18.738927,-34.48438 -11.856121,-24.171 -9.443215,-32.60603 -3.65522,-28.77758 0.174574,-26.02365 2.9258,-35.84443 3.350731,-30.78721 3.251941,-18.005443 7.543205,-23.572853 11.425776,-18.4412 12.229627,-13.022651 12.861609,-8.1535359 8.83018,-2.7891182 5.83807,-1.3045657 z"
         id="path3356" />
    </g>
  </g>
</svg>
