<?xml version="1.0" encoding="UTF-8" standalone="no"?>
<!-- Created with Inkscape (http://www.inkscape.org/) -->

<svg
   version="1.1"
   id="svg2"
   width="259.99854"
   height="620.00049"
   viewBox="0 0 259.99854 620.00049"
   xmlns="http://www.w3.org/2000/svg"
   xmlns:svg="http://www.w3.org/2000/svg">
  <defs
     id="defs6" />
  <path
     id="rect401"
     style="display:none;fill:#000000;stroke:#000000;stroke-width:1.27979;stroke-linejoin:round;stroke-dasharray:1.27979, 10.2383"
     d="m 259.35865,192.50513 -2.20313,-27.20117 -5.52344,-25.42969 -10.23633,-34.47656 -9.61132,-29.439456 -6.88672,-16.951172 -12.23047,-21.517578 -14.97461,-15.697266 -14.64648,-10.228515 -14.26368,-5.3339842 -9.21484,-0.9121094 -5.98242,-0.076172 -8.57617,2.1015626 -15.71289,5.78125 -12.69727,10.736328 -16.32813,22.101562 -13.125,33.373047 -8.626949,33.484383 -7.185547,36.53906 -7.535156,58.17969 -0.3125,38.20703 5.824219,43.11328 17.699223,52.69726 19.64648,35.76368 18.18945,30.09961 10.63672,21.85546 6.4668,18.82032 9.08203,29.17382 7.19336,30.48243 3.41601,18.67968 4.46485,32.94336 8.81445,37.55079 2.83399,5.43359 7.04882,7.40625 12.40821,6.07226 14.36523,0.30274 22.46875,-5.42383 17.15039,-8.30273 6.8711,-12.50586 1.19336,-20.33008 -7.14844,-33.5957 -7.93945,-27.2754 -7.79688,-24.94531 -4.10156,-19.68945 -2.6875,-22.0918 -3.54688,-41.5332 0.75782,-39.59961 1.24218,-32.93945 11.04883,-36.14258 11.24609,-37.60156 6.63086,-26.09375 2.39454,-31.99805 z" />
  <path
     id="path675"
     style="display:inline;fill:#000000;stroke:#000000;stroke-width:1.27979;stroke-linejoin:round;stroke-dasharray:1.27979, 10.2383"
     d="M 259.35865,0.63989502 V 619.3606 H 0.63989502 V 196.07154 l 2.39453998,31.99805 6.63086,26.09375 11.24609,37.60156 11.04883,36.14258 1.24218,32.93945 0.75782,39.59961 -3.54688,41.5332 -2.6875,22.0918 -4.10156,19.68945 -7.79688,24.94531 -7.93945,27.2754 -7.14843998,33.5957 1.19335998,20.33008 6.8711,12.50586 17.15039,8.30273 22.46875,5.42383 14.36523,-0.30274 12.40821,-6.07226 7.04882,-7.40625 2.83399,-5.43359 8.81445,-37.55079 4.46485,-32.94336 3.416015,-18.67968 7.19336,-30.48243 9.08203,-29.17382 6.4668,-18.82032 10.63672,-21.85546 18.18945,-30.09961 19.64648,-35.76368 17.69922,-52.69726 5.82422,-43.11328 -0.3125,-38.20703 -7.53516,-58.17969 -7.18555,-36.53906 L 172.8528,79.335207 159.7278,45.96216 143.39967,23.860598 130.7024,13.12427 114.98951,7.3430201 l -8.57617,-2.1015626 -5.98242,0.076172 -9.214845,0.9121094 -14.26368,5.3339841 -14.64648,10.228515 -14.97461,15.697266 -12.23047,21.517578 -6.88672,16.951172 -9.61132,29.439456 -10.23633,34.47656 -5.52344,25.42969 -2.20312998,27.20117 V 0.63989502 Z" />
</svg>
