<?xml version="1.0" encoding="UTF-8" standalone="no"?>
<!-- Created with Inkscape (http://www.inkscape.org/) -->

<svg
   version="1.1"
   id="svg2"
   width="259.99854"
   height="620.00055"
   viewBox="0 0 259.99855 620.00055"
   xmlns="http://www.w3.org/2000/svg"
   xmlns:svg="http://www.w3.org/2000/svg">
  <defs
     id="defs6" />
  <path
     id="rect401"
     style="display:none;fill:#000000;stroke:#000000;stroke-width:1.27979;stroke-linejoin:round;stroke-dasharray:1.27979, 10.2383"
     d="m 0.63989502,246.78638 5.68359398,42.07227 17.699219,52.69726 19.646484,35.76368 18.1875,30.09961 10.638672,21.85546 6.466797,18.82032 9.080079,29.17382 7.19531,30.48243 3.41602,18.67968 4.46484,32.94336 8.81445,37.55079 2.83399,5.43359 7.04883,7.40625 12.4082,6.07226 14.36523,0.30274 22.46875,-5.42383 17.15039,-8.30273 6.86914,-12.50586 1.19532,-20.33008 -7.14844,-33.5957 -7.93945,-27.2754 -7.79688,-24.94531 -4.10156,-19.68945 -2.6875,-22.0918 -3.54688,-41.5332 0.75782,-39.59961 1.24218,-32.93945 11.04883,-36.14258 11.24414,-37.60156 6.63086,-26.09375 2.53516,-33.85157 -2.3418,-28.91406 -5.52344,-25.42969 L 178.40943,105.39771 168.7981,75.958254 161.91138,59.007082 149.68091,37.489504 134.7063,21.792238 120.05982,11.563723 105.79615,6.2297389 96.57935,5.3176295 90.59888,5.2414575 82.02271,7.3430201 66.309817,13.12427 53.612551,23.860598 37.284426,45.96216 l -13.125,33.373047 -8.628906,33.484383 -7.183594,36.53906 -7.53515598,58.17969 -0.171875,21.01367 z" />
  <path
     id="path699"
     style="display:inline;fill:#000000;stroke:#000000;stroke-width:1.27979;stroke-linejoin:round;stroke-dasharray:1.27979, 10.2383"
     d="M 0.63989502,0.63989514 V 228.55201 L 0.81177002,207.53834 8.346926,149.35865 15.53052,112.81959 24.159426,79.335207 37.284426,45.96216 53.612551,23.860598 66.309817,13.12427 82.02271,7.3430202 l 8.57617,-2.1015626 5.98047,0.076172 9.2168,0.9121094 14.26367,5.333985 14.64648,10.228514 14.97461,15.697266 12.23047,21.517578 6.88672,16.951172 9.61133,29.439456 10.23632,34.47656 5.52344,25.42969 2.3418,28.91406 -2.53516,33.85157 -6.63086,26.09375 -11.24414,37.60156 -11.04883,36.14258 -1.24218,32.93945 -0.75782,39.59961 3.54688,41.5332 2.6875,22.0918 4.10156,19.68945 7.79688,24.94531 7.93945,27.2754 7.14844,33.5957 -1.19532,20.33008 -6.86914,12.50586 -17.15039,8.30273 -22.46875,5.42383 -14.36523,-0.30274 -12.4082,-6.07226 -7.04883,-7.40625 -2.83399,-5.43359 -8.81445,-37.55079 L 98.65357,526.43091 95.23755,507.75123 88.04224,477.2688 78.962161,448.09498 72.495364,429.27466 61.856692,407.4192 43.669192,377.31959 24.022708,341.55591 6.323489,288.85865 0.63989502,246.78638 V 619.3606 H 259.35865 V 0.63989514 Z" />
</svg>
