<?xml version="1.0" encoding="UTF-8" standalone="no"?>
<!-- Created with Inkscape (http://www.inkscape.org/) -->

<svg
   version="1.1"
   id="svg2"
   width="197.01337"
   height="611.90082"
   viewBox="0 0 197.01337 611.90082"
   xmlns="http://www.w3.org/2000/svg"
   xmlns:svg="http://www.w3.org/2000/svg">
  <defs
     id="defs6" />
  <g
     id="g8"
     transform="translate(-43.850088,-1.8605977)">
    <g
       id="g3651"
       transform="matrix(-0.97861665,0.20569262,0.20569262,0.97861665,256.82489,-25.976719)">
      <path
         style="display:inline;fill:none;stroke:#000000;stroke-width:1px;stroke-linecap:butt;stroke-linejoin:miter;stroke-opacity:1"
         d="m 134.41222,2.8540758 16.5669,2.4250848 14.63306,7.8950584 20.52526,18.269333 19.70923,29.960353 15.33135,30.994262 14.54645,34.278683 19.34113,55.38585 8.16436,37.32628 3.16804,43.38899 -6.48087,55.21128 -11.86966,39.03953 -11.60847,33.19741 -5.9152,23.57691 -2.45621,19.74712 -2.88656,30.41912 -0.77001,31.30957 0.49936,18.98252 2.40614,33.15816 -0.90264,38.56047 -1.65507,5.90168 -5.37389,8.69755 -10.89394,8.49456 -13.99701,3.25059 -23.10327,-0.68611 -18.49127,-4.59711 -9.29571,-10.82627 -5.35088,-19.64833 0.0853,-34.34905 2.15984,-28.32559 2.49816,-26.01418 -0.0352,-20.1125 -1.91489,-22.17221 -5.07211,-41.3753 -8.88702,-38.59701 -7.99114,-31.97945 -18.24632,-33.09727 -18.738927,-34.48438 -11.856121,-24.171 -9.443215,-32.60603 -3.65522,-28.77758 0.174574,-26.02365 2.9258,-35.84443 3.350731,-30.78721 3.251941,-18.005443 7.543205,-23.572853 11.425776,-18.4412 12.229627,-13.022651 12.861609,-8.1535359 8.83018,-2.7891182 5.83807,-1.3045657 z"
         id="path3356" />
      <path
         id="rect3415"
         style="fill:none;fill-opacity:1;stroke:#000000;stroke-width:1.13341;stroke-linejoin:round;stroke-dasharray:none;stroke-dashoffset:0;stroke-opacity:1"
         d="m 161.24947,54.377581 a 13.501689,13.502576 44.99581 0 0 -14.03991,12.617751 l -0.0117,-5.06e-4 -1.6e-4,0.09383 a 13.501689,13.502576 44.99581 0 0 -0.0221,0.194539 13.501689,13.502576 44.99581 0 0 0.022,0.80053 l -0.002,26.966627 0.0195,8.44e-4 A 13.501689,13.502576 44.99581 0 0 160.10641,108.6662 13.501689,13.502576 44.99581 0 0 174.1803,95.760586 13.501689,13.502576 44.99581 0 0 174.06271,93.33135 l 1.9e-4,-24.092898 a 13.501689,13.502576 44.99581 0 0 0.0908,-0.787828 13.501689,13.502576 44.99581 0 0 -12.90469,-14.073044 z"
         transform="matrix(0.99906507,-0.04323188,0.04329747,0.99906222,0,0)" />
      <path
         id="path3529"
         style="fill:none;fill-opacity:1;stroke:#000000;stroke-width:1.13341;stroke-linejoin:round;stroke-dasharray:none;stroke-dashoffset:0;stroke-opacity:1"
         d="m 110.67537,51.839579 a 13.502132,13.502133 42.515601 0 0 -13.480471,13.21289 h -0.01172 l 0.0039,0.09375 a 13.502132,13.502133 42.515601 0 0 -0.01367,0.195313 13.502132,13.502133 42.515601 0 0 0.05664,0.798828 l 1.166018,26.941406 h 0.01953 a 13.502132,13.502133 42.515601 0 0 13.468753,13.044924 13.502132,13.502133 42.515601 0 0 13.50196,-13.501956 13.502132,13.502133 42.515601 0 0 -0.22266,-2.421874 l -1.04298,-24.070312 a 13.502132,13.502133 42.515601 0 0 0.0566,-0.791017 13.502132,13.502133 42.515601 0 0 -13.50195,-13.501952 z" />
      <path
         id="path3531"
         style="fill:none;fill-opacity:1;stroke:#000000;stroke-width:1.13341;stroke-linejoin:round;stroke-dasharray:none;stroke-dashoffset:0;stroke-opacity:1"
         d="m 106.79507,144.13989 a 13.502132,13.502133 42.515601 0 0 -13.480466,13.21289 h -0.01172 l 0.0039,0.0937 a 13.502132,13.502133 42.515601 0 0 -0.01367,0.19532 13.502132,13.502133 42.515601 0 0 0.05664,0.79882 l 1.166018,26.94141 h 0.01953 a 13.502132,13.502133 42.515601 0 0 13.468748,13.04492 13.502132,13.502133 42.515601 0 0 13.50196,-13.50195 13.502132,13.502133 42.515601 0 0 -0.22266,-2.42188 l -1.04298,-24.07031 a 13.502132,13.502133 42.515601 0 0 0.0566,-0.79102 13.502132,13.502133 42.515601 0 0 -13.50195,-13.50195 z" />
      <path
         id="path3533"
         style="fill:none;fill-opacity:1;stroke:#000000;stroke-width:1.13341;stroke-linejoin:round;stroke-dasharray:none;stroke-dashoffset:0;stroke-opacity:1"
         d="m 201.59963,136.64437 a 13.502132,13.502133 42.515601 0 0 -13.48046,13.21289 h -0.0117 l 0.004,0.0937 a 13.502132,13.502133 42.515601 0 0 -0.0137,0.19532 13.502132,13.502133 42.515601 0 0 0.0566,0.79882 l 1.16602,26.94141 h 0.0195 a 13.502132,13.502133 42.515601 0 0 13.46874,13.04492 13.502132,13.502133 42.515601 0 0 13.50196,-13.50195 13.502132,13.502133 42.515601 0 0 -0.22266,-2.42188 l -1.04298,-24.07031 a 13.502132,13.502133 42.515601 0 0 0.0566,-0.79102 13.502132,13.502133 42.515601 0 0 -13.50195,-13.50195 z" />
      <path
         id="path3535"
         style="fill:none;fill-opacity:1;stroke:#000000;stroke-width:1.13341;stroke-linejoin:round;stroke-dasharray:none;stroke-dashoffset:0;stroke-opacity:1"
         d="m 134.72745,237.68803 a 13.502132,13.502133 42.515601 0 0 -13.48046,13.21289 h -0.0117 l 0.004,0.0937 a 13.502132,13.502133 42.515601 0 0 -0.0137,0.19532 13.502132,13.502133 42.515601 0 0 0.0566,0.79882 l 1.16602,26.94141 h 0.0195 a 13.502132,13.502133 42.515601 0 0 13.46874,13.04492 13.502132,13.502133 42.515601 0 0 13.50196,-13.50195 13.502132,13.502133 42.515601 0 0 -0.22266,-2.42188 l -1.04298,-24.07031 a 13.502132,13.502133 42.515601 0 0 0.0566,-0.79102 13.502132,13.502133 42.515601 0 0 -13.50195,-13.50195 z" />
      <path
         id="path3537"
         style="fill:none;fill-opacity:1;stroke:#000000;stroke-width:1.13341;stroke-linejoin:round;stroke-dasharray:none;stroke-dashoffset:0;stroke-opacity:1"
         d="M 211.84246,232.45753 A 13.502132,13.502133 42.515601 0 0 198.362,245.67042 h -0.0117 l 0.004,0.0937 a 13.502132,13.502133 42.515601 0 0 -0.0137,0.19532 13.502132,13.502133 42.515601 0 0 0.0566,0.79882 l 1.16602,26.94141 h 0.0195 a 13.502132,13.502133 42.515601 0 0 13.46874,13.04492 13.502132,13.502133 42.515601 0 0 13.50196,-13.50195 13.502132,13.502133 42.515601 0 0 -0.22266,-2.42188 l -1.04298,-24.07031 a 13.502132,13.502133 42.515601 0 0 0.0566,-0.79102 13.502132,13.502133 42.515601 0 0 -13.50195,-13.50195 z" />
      <path
         id="path3539"
         style="fill:none;fill-opacity:1;stroke:#000000;stroke-width:1.13341;stroke-linejoin:round;stroke-dasharray:none;stroke-dashoffset:0;stroke-opacity:1"
         d="m 162.22731,337.792 a 13.502132,13.502133 42.515601 0 0 -13.48046,13.21289 h -0.0117 l 0.004,0.0937 a 13.502132,13.502133 42.515601 0 0 -0.0137,0.19532 13.502132,13.502133 42.515601 0 0 0.0566,0.79882 l 1.16602,26.94141 h 0.0195 a 13.502132,13.502133 42.515601 0 0 13.46874,13.04492 13.502132,13.502133 42.515601 0 0 13.50196,-13.50195 13.502132,13.502133 42.515601 0 0 -0.22266,-2.42188 l -1.04298,-24.07031 a 13.502132,13.502133 42.515601 0 0 0.0566,-0.79102 13.502132,13.502133 42.515601 0 0 -13.50195,-13.50195 z" />
      <path
         id="path3541"
         style="fill:none;fill-opacity:1;stroke:#000000;stroke-width:1.13341;stroke-linejoin:round;stroke-dasharray:none;stroke-dashoffset:0;stroke-opacity:1"
         d="m 204.85027,334.3605 a 13.502132,13.502133 42.515601 0 0 -13.48046,13.21289 h -0.0117 l 0.004,0.0937 a 13.502132,13.502133 42.515601 0 0 -0.0137,0.19532 13.502132,13.502133 42.515601 0 0 0.0566,0.79882 l 1.16602,26.94141 h 0.0195 a 13.502132,13.502133 42.515601 0 0 13.46874,13.04492 13.502132,13.502133 42.515601 0 0 13.50196,-13.50195 13.502132,13.502133 42.515601 0 0 -0.22266,-2.42188 l -1.04298,-24.07031 a 13.502132,13.502133 42.515601 0 0 0.0566,-0.79102 13.502132,13.502133 42.515601 0 0 -13.50195,-13.50195 z" />
      <path
         id="path3543"
         style="fill:none;fill-opacity:1;stroke:#000000;stroke-width:1.13341;stroke-linejoin:round;stroke-dasharray:none;stroke-dashoffset:0;stroke-opacity:1"
         d="m 199.38245,434.86732 a 13.502132,13.502133 42.515601 0 0 -13.48046,13.21289 h -0.0117 l 0.004,0.0937 a 13.502132,13.502133 42.515601 0 0 -0.0137,0.19532 13.502132,13.502133 42.515601 0 0 0.0566,0.79882 l 1.16602,26.94141 h 0.0195 a 13.502132,13.502133 42.515601 0 0 13.46874,13.04492 13.502132,13.502133 42.515601 0 0 13.50196,-13.50195 13.502132,13.502133 42.515601 0 0 -0.22266,-2.42188 l -1.04298,-24.07031 a 13.502132,13.502133 42.515601 0 0 0.0566,-0.79102 13.502132,13.502133 42.515601 0 0 -13.50195,-13.50195 z" />
      <path
         id="path3545"
         style="fill:none;fill-opacity:1;stroke:#000000;stroke-width:1.13341;stroke-linejoin:round;stroke-dasharray:none;stroke-dashoffset:0;stroke-opacity:1"
         d="m 164.36506,437.15148 a 13.502132,13.502133 42.515601 0 0 -13.48046,13.21289 h -0.0117 l 0.004,0.0937 a 13.502132,13.502133 42.515601 0 0 -0.0137,0.19532 13.502132,13.502133 42.515601 0 0 0.0566,0.79882 l 1.16602,26.94141 h 0.0195 a 13.502132,13.502133 42.515601 0 0 13.46874,13.04492 13.502132,13.502133 42.515601 0 0 13.50196,-13.50195 13.502132,13.502133 42.515601 0 0 -0.22266,-2.42188 l -1.04298,-24.07031 a 13.502132,13.502133 42.515601 0 0 0.0566,-0.79102 13.502132,13.502133 42.515601 0 0 -13.50195,-13.50195 z" />
      <path
         id="path3547"
         style="fill:none;fill-opacity:1;stroke:#000000;stroke-width:1.13341;stroke-linejoin:round;stroke-dasharray:none;stroke-dashoffset:0;stroke-opacity:1"
         d="m 162.71821,520.54673 a 13.502132,13.502133 42.515601 0 0 -13.48046,13.21289 h -0.0117 l 0.004,0.0937 a 13.502132,13.502133 42.515601 0 0 -0.0137,0.19532 13.502132,13.502133 42.515601 0 0 0.0566,0.79882 l 1.16602,26.94141 h 0.0195 a 13.502132,13.502133 42.515601 0 0 13.46874,13.04492 13.502132,13.502133 42.515601 0 0 13.50196,-13.50195 13.502132,13.502133 42.515601 0 0 -0.22266,-2.42188 l -1.04298,-24.07031 a 13.502132,13.502133 42.515601 0 0 0.0566,-0.79102 13.502132,13.502133 42.515601 0 0 -13.50195,-13.50195 z" />
      <path
         id="path3549"
         style="fill:none;fill-opacity:1;stroke:#000000;stroke-width:1.13341;stroke-linejoin:round;stroke-dasharray:none;stroke-dashoffset:0;stroke-opacity:1"
         d="m 200.65037,517.25302 a 13.502132,13.502133 42.515601 0 0 -13.48046,13.21289 h -0.0117 l 0.004,0.0937 a 13.502132,13.502133 42.515601 0 0 -0.0137,0.19532 13.502132,13.502133 42.515601 0 0 0.0566,0.79882 l 1.16602,26.94141 h 0.0195 a 13.502132,13.502133 42.515601 0 0 13.46874,13.04492 13.502132,13.502133 42.515601 0 0 13.50196,-13.50195 13.502132,13.502133 42.515601 0 0 -0.22266,-2.42188 l -1.04298,-24.07031 a 13.502132,13.502133 42.515601 0 0 0.0566,-0.79102 13.502132,13.502133 42.515601 0 0 -13.50195,-13.50195 z" />
    </g>
  </g>
</svg>
